HIERARCHY
ROOT Hips
{
  OFFSET 0 0 0
  CHANNELS 6 Xposition Yposition Zposition Zrotation Yrotation Xrotation
  JOINT LeftThigh
  {
    OFFSET 8.409438 0 -5.917753
    CHANNELS 3 Zrotation Yrotation Xrotation
    JOINT LeftLeg
    {
      OFFSET 0 0 -42.358652
      CHANNELS 3 Zrotation Yrotation Xrotation
      JOINT LeftFoot
      {
        OFFSET 0 0 -39.357303
        CHANNELS 3 Zrotation Yrotation Xrotation
      }
    }
  }
  JOINT RightThigh
  {
    OFFSET -8.409438 0 -5.917753
    CHANNELS 3 Zrotation Yrotation Xrotation
    JOINT RightLeg
    {
      OFFSET 0 0 -42.358652
      CHANNELS 3 Zrotation Yrotation Xrotation
      JOINT RightFoot
      {
        OFFSET 0 0 -39.357303
        CHANNELS 3 Zrotation Yrotation Xrotation
      }
    }
  }
  JOINT SpineLow
  {
    OFFSET 0 0 4.719101
    CHANNELS 3 Zrotation Yrotation Xrotation
    JOINT SpineMid
    {
      OFFSET 0 0 12.899191
      CHANNELS 3 Zrotation Yrotation Xrotation
      JOINT Chest
      {
        OFFSET 0 0 12.899191
        CHANNELS 3 Zrotation Yrotation Xrotation
        JOINT LeftShoulder
        {
          OFFSET 7.550562 1.41573 9.438202
          CHANNELS 3 Zrotation Yrotation Xrotation
          JOINT LeftArm
          {
            OFFSET 9.155056 0 4.247191
            CHANNELS 3 Zrotation Yrotation Xrotation
            JOINT LeftForearm
            {
              OFFSET 0 0 25.771955
              CHANNELS 3 Zrotation Yrotation Xrotation
              JOINT LeftHand
              {
                OFFSET 0 0 25.197169
                CHANNELS 3 Zrotation Yrotation Xrotation
              }
            }
          }
        }
        JOINT RightShoulder
        {
          OFFSET -7.550562 1.41573 9.438202
          CHANNELS 3 Zrotation Yrotation Xrotation
          JOINT RightArm
          {
            OFFSET -9.155056 0 4.247191
            CHANNELS 3 Zrotation Yrotation Xrotation
            JOINT RightForearm
            {
              OFFSET 0 0 -25.771955
              CHANNELS 3 Zrotation Yrotation Xrotation
              JOINT RightHand
              {
                OFFSET 0 0 -25.197169
                CHANNELS 3 Zrotation Yrotation Xrotation
              }
            }
          }
        }
        JOINT Neck
        {
          OFFSET 0 0 15.101124
          CHANNELS 3 Zrotation Yrotation Xrotation
          JOINT Head
          {
            OFFSET 0 0 11.325843
            CHANNELS 3 Zrotation Yrotation Xrotation
            End Site
            {
              OFFSET 0 0 14.157303
            }
          }
        }
      }
    }
  }
}
MOTION
Frames: 7
Frame Time: 0.0
0.0  93.25843  0.0  4.095336  34.056828  -84.60099  -19.654006  -10.593516  -17.033964  -4.631608  -2.019941  15.459753  6.092711  -0.136466  5.150128  -34.802296  5.37885  -9.576473  -20.859318  10.922104  6.403436  0.86174  0.952595  1.248217  2.48914  0.753195  0.386694  6.817616  2.016433  1.13351  6.817616  2.016433  1.13351  -57.981164  16.00708  1.659702  150.017709  46.409597  -139.034861  -25.834939  15.992235  88.334853  90.347256  -3.642881  -25.210219  5.102224  -27.281523  30.375482  40.48069  70.672189  10.950836  19.546103  17.538817  -22.059581  98.011726  26.472367  17.014432  -24.42892  0.170084  20.483238  -18.352291  -0.694721  15.398824  
0.0  93.25843  0.0  4.09226  34.518453  -84.528081  -19.785973  -10.691254  -17.293441  -4.90005  -1.84207  15.776504  6.075745  -0.153242  5.156061  -34.90357  5.203  -9.665716  -21.157055  11.262229  6.590419  0.813634  1.008877  1.234137  2.515454  0.74456  0.405591  6.889934  1.990417  1.184996  6.889934  1.990417  1.184996  -57.997373  15.896273  1.546147  150.734141  46.772777  -138.783932  -25.765238  16.202052  88.38413  89.235354  -3.831894  -26.527409  5.233743  -27.3551  30.347852  43.127675  71.327494  13.782355  18.901238  17.115727  -22.345743  96.828649  27.197688  18.325654  -24.650467  0.054749  20.473961  -18.514811  -0.788621  15.38781  
0.0  93.25843  0.0  4.227636  35.156385  -84.378973  -20.040809  -10.73919  -17.592436  -5.235483  -1.627045  16.07669  6.092023  -0.145776  5.204078  -35.199673  5.149136  -9.814573  -21.334204  11.670526  6.830284  0.670502  1.013286  1.200385  2.481361  0.752723  0.423963  6.797452  2.011448  1.235004  6.797452  2.011448  1.235004  -57.870476  15.658719  1.424222  151.093175  47.066562  -138.619586  -26.532372  17.289204  87.938439  88.568972  -4.555758  -28.137741  6.082544  -27.633616  30.564377  43.003785  71.8807  14.151363  18.627495  16.874661  -22.222499  95.900503  28.040564  19.929768  -24.541911  -0.009319  20.553574  -18.431332  -0.836376  15.44479  
0.0  93.25843  0.0  4.203718  35.517179  -84.344969  -20.117412  -10.8031  -17.803877  -5.50613  -1.4418  16.402448  6.083781  -0.16468  5.208303  -35.333698  5.025029  -9.912555  -21.679889  12.013528  7.031392  0.695091  1.04935  1.178723  2.467737  0.734092  0.421482  6.759707  1.961107  1.225901  6.759707  1.961106  1.225901  -57.821738  15.534813  1.248395  151.451068  47.238491  -138.628578  -27.744075  18.906881  87.295544  88.183036  -5.562251  -29.678027  6.295582  -27.587239  30.546515  44.357628  71.918439  15.40095  18.436702  16.586493  -22.066216  95.531901  28.800546  21.407988  -24.592269  -0.008421  20.601068  -18.469299  -0.83934  15.48064  
0.0  93.25843  0.0  4.351287  36.202183  -84.137505  -20.791866  -10.929382  -18.339465  -5.551736  -1.207776  16.95734  6.1071  -0.13975  5.259973  -35.89384  4.968745  -10.175683  -21.959643  12.288661  7.265135  0.614476  1.089188  1.140833  2.362839  0.74555  0.390098  6.472241  1.99749  1.138252  6.472242  1.997491  1.138252  -57.256885  15.255064  1.31781  150.093406  47.264738  -138.509931  -30.043388  19.890658  85.941802  88.39985  -6.503371  -31.118219  7.246967  -27.8554  30.927605  44.343243  72.229619  15.789149  17.94774  16.304292  -21.993257  95.49791  29.394547  22.378714  -24.333766  0.045373  20.775908  -18.277399  -0.797083  15.61354  
0.0  93.25843  0.0  4.276461  36.361861  -84.219092  -20.808666  -10.97814  -18.457407  -5.75311  -1.009875  17.350918  6.059344  -0.130442  5.241289  -35.956395  4.864766  -10.252256  -22.116332  12.620412  7.534144  0.669924  1.134188  1.109129  2.3635  0.727736  0.384576  6.473513  1.949383  1.121435  6.473513  1.949383  1.121435  -57.336853  15.182412  1.178059  150.098496  47.223698  -138.726257  -31.421894  21.271084  85.15493  88.685483  -7.328827  -32.121315  7.280546  -27.833875  30.898452  46.401555  72.089714  17.751038  17.590012  16.182025  -21.980716  95.505915  29.774846  22.628518  -24.337426  0.083897  20.858399  -18.281672  -0.771538  15.677072  
0.0  93.25843  0.0  4.33617  36.695001  -84.191794  -21.634214  -11.017163  -19.016951  -5.811706  -0.796833  17.954267  6.24957  -0.070349  5.432786  -36.348322  4.82342  -10.446633  -22.055435  12.958567  7.852646  0.657132  1.141646  1.089905  2.273346  0.739645  0.365588  6.226714  1.985283  1.068078  6.226714  1.985283  1.068078  -56.8019  14.959268  1.270868  149.697989  47.01696  -138.81434  -32.524515  22.012315  84.532659  89.186488  -7.716891  -32.860626  7.809226  -27.996223  31.032465  46.818356  72.089527  18.199903  17.402237  16.002843  -21.90001  95.672664  30.038822  22.266186  -24.107831  0.151124  20.98365  -18.111846  -0.718025  15.773241  
